<svg width="295" height="80" viewBox="0 0 295 80" fill="none" xmlns="http://www.w3.org/2000/svg">
<path d="M45.6111 55.4L39.5 51.9V28.1L61.5 15.5L83.5 28.1V51.9L77.6333 55.26M45.6111 55.4V37.2L61.5 28.1L77.6333 37.2V55.26M45.6111 55.4L51.2333 58.62M77.6333 55.26L72.5 58.2M51.2333 58.62L61.5 64.5L72.5 58.2M51.2333 58.62V46.3L61.5 40L72.5 46.3V58.2" stroke="#E31E24" stroke-width="3"/>
<path d="M106.527 18.3159C106.561 18.3159 106.757 18.3381 107.117 18.3823C107.482 18.4266 107.761 18.4487 107.955 18.4487C108.044 18.4487 108.152 18.446 108.279 18.4404C108.412 18.4294 108.544 18.4155 108.677 18.3989C108.81 18.3823 108.926 18.3685 109.026 18.3574C109.131 18.3408 109.261 18.327 109.416 18.3159C110.174 20.38 110.852 22.1979 111.45 23.7695C112.047 25.3411 112.8 27.2863 113.708 29.605C114.615 31.9181 115.329 33.7222 115.849 35.0171C116.375 36.3065 117.269 38.5007 118.53 41.5996C118.11 41.5664 117.731 41.5332 117.393 41.5C117.061 41.4723 116.723 41.4502 116.38 41.4336C116.037 41.4115 115.758 41.4004 115.542 41.4004C115.332 41.4004 115.047 41.4115 114.687 41.4336C114.333 41.4557 113.993 41.4806 113.666 41.5083C113.34 41.536 112.966 41.5664 112.545 41.5996C112.169 40.3213 111.737 38.9793 111.25 37.5737C110.769 36.1626 110.332 34.9341 109.939 33.8882C109.552 32.8423 109.007 31.3952 108.304 29.5469C107.606 27.6986 107.014 26.1076 106.527 24.7739C103.771 31.4422 101.663 37.0508 100.202 41.5996C99.6654 41.5332 99.1341 41.5 98.6084 41.5C98.0771 41.5 97.557 41.5332 97.0479 41.5996C98.0107 39.3529 98.8906 37.2943 99.6875 35.4238C100.49 33.5479 101.267 31.7051 102.02 29.8955C102.773 28.0859 103.528 26.2127 104.286 24.2759C105.05 22.3335 105.797 20.3468 106.527 18.3159ZM146.346 29.8374C146.346 31.4976 146.039 33.0692 145.425 34.5522C144.811 36.0353 143.917 37.3468 142.744 38.4868C141.57 39.6268 140.148 40.5177 138.477 41.1597C136.811 41.7961 134.969 42.1143 132.949 42.1143C130.442 42.1143 128.237 41.6383 126.333 40.6865C124.435 39.7347 122.966 38.3457 121.925 36.5195C120.885 34.6878 120.365 32.5047 120.365 29.9702C120.365 28.2769 120.666 26.6859 121.27 25.1973C121.873 23.7087 122.753 22.4054 123.909 21.2876C125.071 20.1642 126.482 19.2926 128.143 18.6729C129.808 18.0475 131.681 17.7349 133.762 17.7349C136.07 17.7349 138.04 18.1001 139.672 18.8306C141.31 19.5555 142.614 20.5101 143.582 21.6943C144.55 22.8786 145.25 24.1707 145.682 25.5708C146.114 26.9653 146.335 28.3875 146.346 29.8374ZM133.53 19.7769C131.947 19.7769 130.594 20.1836 129.471 20.9971C128.353 21.805 127.495 23.0446 126.897 24.7158C126.305 26.3815 126.009 28.4622 126.009 30.958C126.009 32.5296 126.258 34.0099 126.756 35.3989C127.254 36.7879 128.037 37.9141 129.105 38.7773C130.174 39.6406 131.51 40.0723 133.115 40.0723C134.775 40.0723 136.178 39.577 137.323 38.5864C138.469 37.5903 139.318 36.265 139.872 34.6104C140.425 32.9502 140.702 31.1434 140.702 29.1899C140.702 28.0389 140.563 26.9128 140.287 25.8115C140.015 24.7103 139.587 23.7004 139 22.7817C138.419 21.8631 137.669 21.1326 136.75 20.5903C135.832 20.048 134.758 19.7769 133.53 19.7769ZM162.765 34.3281C162.937 33.9961 163.443 33.0138 164.284 31.3813C165.125 29.7433 165.911 28.2021 166.642 26.7578C167.378 25.3135 168.097 23.8636 168.8 22.4082C169.503 20.9528 170.131 19.5998 170.684 18.3491C170.734 18.3547 170.933 18.3906 171.282 18.457C171.636 18.5179 171.902 18.5483 172.079 18.5483C172.2 18.5483 172.35 18.5373 172.527 18.5151C172.709 18.493 172.875 18.4681 173.025 18.4404C173.18 18.4128 173.365 18.3823 173.581 18.3491C173.869 20.8062 174.165 23.3683 174.469 26.0356C174.774 28.703 174.998 30.6481 175.142 31.8711C175.291 33.0941 175.493 34.5993 175.748 36.3867C176.002 38.1686 176.276 39.9173 176.569 41.6328C176.243 41.6217 175.764 41.5968 175.133 41.5581C174.508 41.5194 174.035 41.5 173.714 41.5C173.393 41.5 172.939 41.5194 172.353 41.5581C171.766 41.5968 171.312 41.6217 170.991 41.6328C170.93 40.3656 170.842 39.0457 170.726 37.6733C170.615 36.3009 170.499 35.0558 170.377 33.938C170.261 32.8146 170.136 31.647 170.003 30.4351C169.876 29.2176 169.718 27.693 169.53 25.8613C169.104 26.7246 168.498 27.9476 167.712 29.5303C166.927 31.113 166.254 32.4826 165.695 33.6392C165.142 34.7902 164.486 36.1681 163.728 37.7729C162.97 39.3778 162.389 40.6201 161.985 41.5H160.69C160.325 40.6976 159.746 39.4829 158.955 37.856C158.169 36.2235 157.561 34.9756 157.129 34.1123C156.703 33.2435 156.053 31.9209 155.178 30.1445C154.304 28.3682 153.659 27.0539 153.244 26.2017C152.37 32.9253 151.894 38.069 151.816 41.6328C151.639 41.6217 151.374 41.5968 151.02 41.5581C150.665 41.5194 150.4 41.5 150.223 41.5C150.04 41.5 149.777 41.5194 149.434 41.5581C149.097 41.5968 148.825 41.6217 148.621 41.6328C149.191 38.556 149.725 35.3076 150.223 31.8877C150.721 28.4622 151.354 23.9494 152.124 18.3491C152.334 18.3823 152.511 18.4128 152.655 18.4404C152.799 18.4681 152.951 18.493 153.111 18.5151C153.272 18.5373 153.407 18.5483 153.518 18.5483C153.623 18.5483 153.762 18.5373 153.933 18.5151C154.11 18.493 154.268 18.4681 154.406 18.4404C154.545 18.4128 154.713 18.3823 154.913 18.3491C155.671 19.9705 156.282 21.2655 156.747 22.2339C157.217 23.1968 157.837 24.4557 158.606 26.0107C159.376 27.5602 160.112 29.0378 160.814 30.4434C161.523 31.8434 162.173 33.1383 162.765 34.3281ZM195.636 21.271C193.284 20.9556 189.975 20.7979 185.708 20.7979V28.3765H189.311C190.894 28.3765 192.241 28.5895 193.354 29.0156C194.466 29.4417 195.31 30.0837 195.885 30.9414C196.466 31.7936 196.757 32.8534 196.757 34.1206C196.757 39.0402 193.766 41.5 187.784 41.5H180.604V18.3491H195.636C195.52 18.8582 195.462 19.3452 195.462 19.8101C195.462 20.2749 195.52 20.7619 195.636 21.271ZM185.708 30.2441V39.5991C186.876 39.5991 187.737 39.5189 188.29 39.3584C189.341 39.0651 190.136 38.5007 190.672 37.665C191.215 36.8239 191.486 35.8472 191.486 34.7349C191.486 33.4123 191.157 32.3332 190.498 31.4976C189.84 30.6619 189.059 30.2441 188.157 30.2441H185.708ZM212.437 34.5605H204.518C204.319 35.1527 204.039 35.9468 203.68 36.9429C203.32 37.939 203.013 38.8161 202.758 39.5742C202.504 40.3324 202.296 41.0075 202.136 41.5996C201.992 41.5885 201.735 41.5692 201.364 41.5415C200.999 41.5138 200.725 41.5 200.542 41.5C200.359 41.5 200.091 41.5138 199.737 41.5415C199.383 41.5692 199.106 41.5885 198.907 41.5996L208.635 18.042C209.072 18.1084 209.501 18.1416 209.922 18.1416C210.342 18.1416 210.774 18.1084 211.217 18.042L220.705 41.6328C220.367 41.6217 219.869 41.5968 219.21 41.5581C218.557 41.5194 218.068 41.5 217.741 41.5C217.415 41.5 216.928 41.5194 216.28 41.5581C215.638 41.5968 215.162 41.6217 214.853 41.6328C213.823 38.3512 213.018 35.9938 212.437 34.5605ZM205.439 32.4937H211.657L208.635 24.5664L205.439 32.4937ZM229.171 31.4727V41.6328C228.878 41.6217 228.449 41.5968 227.885 41.5581C227.326 41.5194 226.903 41.5 226.615 41.5C226.321 41.5 225.895 41.5194 225.336 41.5581C224.778 41.5968 224.354 41.6217 224.066 41.6328V18.3491H232.434C234.819 18.3491 236.625 18.8306 237.854 19.7935C239.088 20.7508 239.705 22.1841 239.705 24.0933C239.705 26.0135 239.271 27.5187 238.402 28.6089C237.533 29.6991 236.329 30.4489 234.791 30.8584C233.258 31.2679 231.385 31.4727 229.171 31.4727ZM229.171 20.2168V29.5635C230.167 29.5192 230.915 29.4417 231.413 29.3311C232.453 29.0433 233.217 28.4871 233.704 27.6626C234.196 26.8325 234.442 25.8475 234.442 24.7075C234.442 23.3794 234.138 22.3003 233.529 21.4702C232.926 20.6346 232.176 20.2168 231.28 20.2168H229.171ZM240.203 39.0513H241.672C242.657 36.7603 243.44 34.9258 244.021 33.5479C244.608 32.1644 245.289 30.5264 246.063 28.6338C246.838 26.7357 247.569 24.8957 248.255 23.1138C248.947 21.3319 249.55 19.7188 250.064 18.2744C250.264 18.2744 250.513 18.2993 250.812 18.3491C251.11 18.3934 251.337 18.4155 251.492 18.4155C251.669 18.4155 251.91 18.3934 252.214 18.3491C252.519 18.2993 252.765 18.2744 252.953 18.2744C255.194 24.4225 257.881 31.3481 261.013 39.0513H262.648C262.51 40.1248 262.441 40.7253 262.441 40.8525C262.441 41.417 262.51 42.0285 262.648 42.687H262.134C261.724 42.1834 261.033 41.8597 260.059 41.7158C259.085 41.5719 257.92 41.5 256.564 41.5H246.528C245.007 41.5 243.761 41.5664 242.793 41.6992C241.83 41.8376 241.138 42.1668 240.718 42.687H240.203C240.319 42.1779 240.377 41.5664 240.377 40.8525C240.377 40.3877 240.319 39.7873 240.203 39.0513ZM249.691 39.1841C250.598 39.1841 251.614 39.1675 252.737 39.1343C253.861 39.1011 254.705 39.0734 255.269 39.0513C254.616 37.0535 253.88 34.9673 253.061 32.7925C252.248 30.6121 251.249 27.9282 250.064 24.7407C247.508 31.0216 245.673 35.7918 244.561 39.0513C245.081 39.0734 245.856 39.1011 246.885 39.1343C247.92 39.1675 248.855 39.1841 249.691 39.1841Z" fill="#E31E24"/>
<path d="M139.305 51.9756V60.5547C139.189 60.5501 139.016 60.5399 138.786 60.5239C138.558 60.508 138.386 60.5 138.27 60.5C138.151 60.5 137.973 60.508 137.736 60.5239C137.499 60.5399 137.322 60.5501 137.203 60.5547V50.9673H142.552C142.504 51.3091 142.48 51.5096 142.48 51.5688C142.48 51.6281 142.504 51.8286 142.552 52.1704C142.035 52.1089 141.533 52.061 141.045 52.0269C140.557 51.9927 139.977 51.9756 139.305 51.9756ZM154.187 55.6978C154.187 56.3813 154.061 57.0285 153.808 57.6392C153.555 58.2498 153.187 58.7899 152.704 59.2593C152.221 59.7287 151.635 60.0955 150.947 60.3599C150.261 60.6219 149.502 60.7529 148.67 60.7529C147.638 60.7529 146.73 60.557 145.946 60.165C145.165 59.7731 144.56 59.2012 144.131 58.4492C143.703 57.695 143.489 56.7961 143.489 55.7524C143.489 55.0552 143.613 54.4001 143.861 53.7871C144.11 53.1742 144.472 52.6375 144.948 52.1772C145.427 51.7147 146.008 51.3558 146.691 51.1006C147.377 50.8431 148.149 50.7144 149.005 50.7144C149.956 50.7144 150.767 50.8647 151.439 51.1655C152.113 51.464 152.65 51.8571 153.049 52.3447C153.448 52.8324 153.736 53.3644 153.914 53.9409C154.091 54.5151 154.182 55.1007 154.187 55.6978ZM148.91 51.5552C148.258 51.5552 147.701 51.7227 147.238 52.0576C146.778 52.3903 146.425 52.9007 146.179 53.5889C145.935 54.2747 145.813 55.1315 145.813 56.1592C145.813 56.8063 145.916 57.4159 146.121 57.9878C146.326 58.5597 146.648 59.0234 147.088 59.3789C147.528 59.7344 148.078 59.9121 148.739 59.9121C149.422 59.9121 150 59.7082 150.472 59.3003C150.943 58.8901 151.293 58.3444 151.521 57.6631C151.749 56.9795 151.863 56.2355 151.863 55.4312C151.863 54.9572 151.806 54.4935 151.692 54.04C151.58 53.5866 151.404 53.1707 151.162 52.7925C150.923 52.4142 150.614 52.1134 150.236 51.8901C149.858 51.6668 149.416 51.5552 148.91 51.5552ZM157.967 56.3711V60.5547C157.847 60.5501 157.67 60.5399 157.438 60.5239C157.207 60.508 157.033 60.5 156.915 60.5C156.794 60.5 156.618 60.508 156.388 60.5239C156.158 60.5399 155.984 60.5501 155.865 60.5547V50.9673H159.311C160.293 50.9673 161.037 51.1655 161.542 51.562C162.051 51.9562 162.305 52.5464 162.305 53.3325C162.305 54.1232 162.126 54.743 161.768 55.1919C161.41 55.6408 160.915 55.9495 160.281 56.1182C159.65 56.2868 158.879 56.3711 157.967 56.3711ZM157.967 51.7363V55.585C158.377 55.5667 158.685 55.5348 158.89 55.4893C159.319 55.3708 159.633 55.1418 159.833 54.8022C160.036 54.4604 160.138 54.0549 160.138 53.5854C160.138 53.0386 160.012 52.5942 159.762 52.2524C159.513 51.9084 159.205 51.7363 158.835 51.7363H157.967ZM173.628 55.6978C173.628 56.3813 173.502 57.0285 173.249 57.6392C172.996 58.2498 172.628 58.7899 172.145 59.2593C171.662 59.7287 171.076 60.0955 170.388 60.3599C169.702 60.6219 168.944 60.7529 168.112 60.7529C167.08 60.7529 166.172 60.557 165.388 60.165C164.606 59.7731 164.001 59.2012 163.573 58.4492C163.144 57.695 162.93 56.7961 162.93 55.7524C162.93 55.0552 163.054 54.4001 163.303 53.7871C163.551 53.1742 163.913 52.6375 164.39 52.1772C164.868 51.7147 165.449 51.3558 166.133 51.1006C166.819 50.8431 167.59 50.7144 168.447 50.7144C169.397 50.7144 170.208 50.8647 170.88 51.1655C171.555 51.464 172.091 51.8571 172.49 52.3447C172.889 52.8324 173.177 53.3644 173.355 53.9409C173.533 54.5151 173.624 55.1007 173.628 55.6978ZM168.351 51.5552C167.699 51.5552 167.142 51.7227 166.68 52.0576C166.219 52.3903 165.866 52.9007 165.62 53.5889C165.376 54.2747 165.254 55.1315 165.254 56.1592C165.254 56.8063 165.357 57.4159 165.562 57.9878C165.767 58.5597 166.09 59.0234 166.529 59.3789C166.969 59.7344 167.519 59.9121 168.18 59.9121C168.864 59.9121 169.441 59.7082 169.913 59.3003C170.385 58.8901 170.735 58.3444 170.962 57.6631C171.19 56.9795 171.304 56.2355 171.304 55.4312C171.304 54.9572 171.247 54.4935 171.133 54.04C171.022 53.5866 170.845 53.1707 170.604 52.7925C170.364 52.4142 170.056 52.1134 169.677 51.8901C169.299 51.6668 168.857 51.5552 168.351 51.5552ZM174.172 59.4917H174.777C175.182 58.5483 175.505 57.793 175.744 57.2256C175.986 56.6559 176.266 55.9814 176.585 55.2021C176.904 54.4206 177.205 53.6629 177.487 52.9292C177.772 52.1955 178.021 51.5312 178.232 50.9365C178.314 50.9365 178.417 50.9468 178.54 50.9673C178.663 50.9855 178.757 50.9946 178.82 50.9946C178.893 50.9946 178.992 50.9855 179.118 50.9673C179.243 50.9468 179.344 50.9365 179.422 50.9365C180.345 53.4681 181.451 56.3198 182.741 59.4917H183.414C183.357 59.9338 183.329 60.181 183.329 60.2334C183.329 60.4658 183.357 60.7176 183.414 60.9888H183.202C183.034 60.7814 182.749 60.6481 182.348 60.5889C181.947 60.5296 181.467 60.5 180.909 60.5H176.776C176.15 60.5 175.637 60.5273 175.238 60.582C174.842 60.639 174.557 60.7746 174.384 60.9888H174.172C174.22 60.7791 174.244 60.5273 174.244 60.2334C174.244 60.042 174.22 59.7948 174.172 59.4917ZM178.079 59.5464C178.452 59.5464 178.87 59.5396 179.333 59.5259C179.796 59.5122 180.143 59.5008 180.375 59.4917C180.107 58.6691 179.804 57.8101 179.466 56.9146C179.131 56.0168 178.72 54.9116 178.232 53.5991C177.18 56.1854 176.424 58.1496 175.966 59.4917C176.181 59.5008 176.5 59.5122 176.923 59.5259C177.349 59.5396 177.735 59.5464 178.079 59.5464ZM191.966 58.8628L192.15 58.9448L191.843 60.1514C191.054 60.5524 190.13 60.7529 189.071 60.7529C188.33 60.7529 187.638 60.6424 186.993 60.4214C186.35 60.2004 185.79 59.8813 185.311 59.4644C184.833 59.0474 184.461 58.5472 184.197 57.9639C183.935 57.3783 183.804 56.7345 183.804 56.0327C183.804 55.144 183.947 54.3625 184.234 53.688C184.521 53.0112 184.919 52.4541 185.427 52.0166C185.938 51.5791 186.528 51.2533 187.198 51.0391C187.87 50.8226 188.597 50.7144 189.378 50.7144C189.857 50.7144 190.356 50.7747 190.875 50.8955C191.395 51.0163 191.847 51.1849 192.232 51.4014C192.18 51.6133 192.123 51.8617 192.062 52.1465C192.002 52.4313 191.952 52.6626 191.911 52.8403H191.716C191.452 52.453 191.108 52.1419 190.684 51.9072C190.263 51.6725 189.832 51.5552 189.392 51.5552C188.834 51.5552 188.346 51.6759 187.929 51.9175C187.514 52.159 187.173 52.4883 186.904 52.9053C186.637 53.32 186.441 53.778 186.316 54.2793C186.191 54.7806 186.128 55.3001 186.128 55.8379C186.128 56.64 186.257 57.3486 186.514 57.9639C186.774 58.5791 187.154 59.0576 187.656 59.3994C188.159 59.7412 188.761 59.9121 189.46 59.9121C189.882 59.9121 190.325 59.8141 190.79 59.6182C191.255 59.4199 191.647 59.1681 191.966 58.8628ZM193.982 60.5547V50.9673C194.026 50.9696 194.177 50.9844 194.437 51.0117C194.697 51.0368 194.895 51.0493 195.032 51.0493C195.109 51.0493 195.208 51.0459 195.329 51.0391C195.45 51.0299 195.567 51.0197 195.681 51.0083C195.795 50.9946 195.93 50.981 196.084 50.9673V55.3491C197.324 53.925 198.537 52.4644 199.725 50.9673C199.829 50.981 199.922 50.9946 200.001 51.0083C200.083 51.0197 200.169 51.0299 200.258 51.0391C200.347 51.0459 200.421 51.0493 200.48 51.0493C200.571 51.0493 200.712 51.0368 200.904 51.0117C201.095 50.9844 201.201 50.9696 201.222 50.9673V51.0767C200.584 51.6851 199.916 52.3687 199.219 53.1274C198.521 53.8862 197.98 54.4958 197.595 54.9561L201.502 60.3735V60.5547C201.379 60.5501 201.177 60.5399 200.897 60.5239C200.617 60.508 200.422 60.5 200.312 60.5C200.189 60.5 199.988 60.508 199.708 60.5239C199.43 60.5399 199.234 60.5501 199.12 60.5547L196.084 56.1182V60.5547C195.964 60.5501 195.787 60.5399 195.555 60.5239C195.325 60.508 195.15 60.5 195.032 60.5C194.918 60.5 194.746 60.508 194.516 60.5239C194.288 60.5399 194.11 60.5501 193.982 60.5547ZM212.525 55.6978C212.525 56.3813 212.398 57.0285 212.146 57.6392C211.893 58.2498 211.525 58.7899 211.042 59.2593C210.558 59.7287 209.973 60.0955 209.285 60.3599C208.599 60.6219 207.84 60.7529 207.008 60.7529C205.976 60.7529 205.068 60.557 204.284 60.165C203.503 59.7731 202.898 59.2012 202.469 58.4492C202.041 57.695 201.827 56.7961 201.827 55.7524C201.827 55.0552 201.951 54.4001 202.199 53.7871C202.448 53.1742 202.81 52.6375 203.286 52.1772C203.765 51.7147 204.346 51.3558 205.029 51.1006C205.715 50.8431 206.486 50.7144 207.343 50.7144C208.293 50.7144 209.105 50.8647 209.777 51.1655C210.451 51.464 210.988 51.8571 211.387 52.3447C211.785 52.8324 212.074 53.3644 212.251 53.9409C212.429 54.5151 212.52 55.1007 212.525 55.6978ZM207.248 51.5552C206.596 51.5552 206.039 51.7227 205.576 52.0576C205.116 52.3903 204.763 52.9007 204.517 53.5889C204.273 54.2747 204.151 55.1315 204.151 56.1592C204.151 56.8063 204.253 57.4159 204.458 57.9878C204.664 58.5597 204.986 59.0234 205.426 59.3789C205.866 59.7344 206.416 59.9121 207.077 59.9121C207.76 59.9121 208.338 59.7082 208.81 59.3003C209.281 58.8901 209.631 58.3444 209.859 57.6631C210.087 56.9795 210.201 56.2355 210.201 55.4312C210.201 54.9572 210.144 54.4935 210.03 54.04C209.918 53.5866 209.742 53.1707 209.5 52.7925C209.261 52.4142 208.952 52.1134 208.574 51.8901C208.195 51.6668 207.753 51.5552 207.248 51.5552ZM214.203 60.5547V50.9673C214.358 50.981 214.494 50.9946 214.61 51.0083C214.728 51.0197 214.846 51.0299 214.962 51.0391C215.078 51.0459 215.175 51.0493 215.252 51.0493C215.33 51.0493 215.429 51.0459 215.55 51.0391C215.671 51.0299 215.788 51.0197 215.902 51.0083C216.016 50.9946 216.15 50.981 216.305 50.9673V57.5332C216.731 57.0798 217.188 56.5682 217.676 55.9985C218.163 55.4266 218.629 54.8638 219.074 54.3101C219.518 53.7541 219.968 53.1753 220.424 52.5737C220.882 51.9699 221.282 51.4242 221.624 50.9365C221.717 50.9479 221.866 50.9536 222.071 50.9536C222.352 50.9536 222.557 50.9479 222.687 50.9365V60.5547C222.575 60.5501 222.401 60.5399 222.164 60.5239C221.929 60.508 221.749 60.5 221.624 60.5C221.514 60.5 221.343 60.508 221.111 60.5239C220.878 60.5399 220.704 60.5501 220.588 60.5547V53.9341C220.178 54.4012 219.764 54.8843 219.347 55.3833C218.93 55.88 218.453 56.4611 217.915 57.1265C217.38 57.7896 216.89 58.4071 216.445 58.979C216.003 59.5487 215.606 60.0739 215.252 60.5547C215.15 60.5456 215.005 60.541 214.818 60.541C214.549 60.541 214.344 60.5456 214.203 60.5547ZM214.958 49.3267L215.533 48.5576C216.412 49.4349 217.388 49.8735 218.458 49.8735C219.561 49.8735 220.561 49.4258 221.456 48.5303L222.003 49.2446C221.675 49.5728 221.314 49.853 220.919 50.0854C220.525 50.3179 220.116 50.4922 219.692 50.6084C219.271 50.7246 218.841 50.7827 218.404 50.7827C217.775 50.7827 217.165 50.6619 216.575 50.4204C215.987 50.1789 215.448 49.8143 214.958 49.3267Z" fill="#E31E24"/>
</svg>
