<svg width="275" height="80" viewBox="0 0 275 80" fill="none" xmlns="http://www.w3.org/2000/svg">
<path d="M35.6111 55.4L29.5 51.9V28.1L51.5 15.5L73.5 28.1V51.9L67.6333 55.26M35.6111 55.4V37.2L51.5 28.1L67.6333 37.2V55.26M35.6111 55.4L41.2333 58.62M67.6333 55.26L62.5 58.2M41.2333 58.62L51.5 64.5L62.5 58.2M41.2333 58.62V46.3L51.5 40L62.5 46.3V58.2" stroke="white" stroke-width="3"/>
<path d="M96.5273 18.3159C96.5605 18.3159 96.757 18.3381 97.1167 18.3823C97.4819 18.4266 97.7614 18.4487 97.9551 18.4487C98.0436 18.4487 98.1515 18.446 98.2788 18.4404C98.4116 18.4294 98.5444 18.4155 98.6772 18.3989C98.8101 18.3823 98.9263 18.3685 99.0259 18.3574C99.131 18.3408 99.2611 18.327 99.416 18.3159C100.174 20.38 100.852 22.1979 101.45 23.7695C102.047 25.3411 102.8 27.2863 103.708 29.605C104.615 31.9181 105.329 33.7222 105.849 35.0171C106.375 36.3065 107.269 38.5007 108.53 41.5996C108.11 41.5664 107.731 41.5332 107.393 41.5C107.061 41.4723 106.723 41.4502 106.38 41.4336C106.037 41.4115 105.758 41.4004 105.542 41.4004C105.332 41.4004 105.047 41.4115 104.687 41.4336C104.333 41.4557 103.993 41.4806 103.666 41.5083C103.34 41.536 102.966 41.5664 102.545 41.5996C102.169 40.3213 101.737 38.9793 101.25 37.5737C100.769 36.1626 100.332 34.9341 99.939 33.8882C99.5516 32.8423 99.0065 31.3952 98.3037 29.5469C97.6064 27.6986 97.0143 26.1076 96.5273 24.7739C93.7715 31.4422 91.6631 37.0508 90.2021 41.5996C89.6654 41.5332 89.1341 41.5 88.6084 41.5C88.0771 41.5 87.557 41.5332 87.0479 41.5996C88.0107 39.3529 88.8906 37.2943 89.6875 35.4238C90.4899 33.5479 91.2674 31.7051 92.02 29.8955C92.7726 28.0859 93.528 26.2127 94.2861 24.2759C95.0498 22.3335 95.7969 20.3468 96.5273 18.3159ZM136.346 29.8374C136.346 31.4976 136.039 33.0692 135.425 34.5522C134.811 36.0353 133.917 37.3468 132.744 38.4868C131.57 39.6268 130.148 40.5177 128.477 41.1597C126.811 41.7961 124.969 42.1143 122.949 42.1143C120.442 42.1143 118.237 41.6383 116.333 40.6865C114.435 39.7347 112.966 38.3457 111.925 36.5195C110.885 34.6878 110.365 32.5047 110.365 29.9702C110.365 28.2769 110.666 26.6859 111.27 25.1973C111.873 23.7087 112.753 22.4054 113.909 21.2876C115.071 20.1642 116.482 19.2926 118.143 18.6729C119.808 18.0475 121.681 17.7349 123.762 17.7349C126.07 17.7349 128.04 18.1001 129.672 18.8306C131.31 19.5555 132.614 20.5101 133.582 21.6943C134.55 22.8786 135.25 24.1707 135.682 25.5708C136.114 26.9653 136.335 28.3875 136.346 29.8374ZM123.53 19.7769C121.947 19.7769 120.594 20.1836 119.471 20.9971C118.353 21.805 117.495 23.0446 116.897 24.7158C116.305 26.3815 116.009 28.4622 116.009 30.958C116.009 32.5296 116.258 34.0099 116.756 35.3989C117.254 36.7879 118.037 37.9141 119.105 38.7773C120.174 39.6406 121.51 40.0723 123.115 40.0723C124.775 40.0723 126.178 39.577 127.323 38.5864C128.469 37.5903 129.318 36.265 129.872 34.6104C130.425 32.9502 130.702 31.1434 130.702 29.1899C130.702 28.0389 130.563 26.9128 130.287 25.8115C130.015 24.7103 129.587 23.7004 129 22.7817C128.419 21.8631 127.669 21.1326 126.75 20.5903C125.832 20.048 124.758 19.7769 123.53 19.7769ZM152.765 34.3281C152.937 33.9961 153.443 33.0138 154.284 31.3813C155.125 29.7433 155.911 28.2021 156.642 26.7578C157.378 25.3135 158.097 23.8636 158.8 22.4082C159.503 20.9528 160.131 19.5998 160.684 18.3491C160.734 18.3547 160.933 18.3906 161.282 18.457C161.636 18.5179 161.902 18.5483 162.079 18.5483C162.2 18.5483 162.35 18.5373 162.527 18.5151C162.709 18.493 162.875 18.4681 163.025 18.4404C163.18 18.4128 163.365 18.3823 163.581 18.3491C163.869 20.8062 164.165 23.3683 164.469 26.0356C164.774 28.703 164.998 30.6481 165.142 31.8711C165.291 33.0941 165.493 34.5993 165.748 36.3867C166.002 38.1686 166.276 39.9173 166.569 41.6328C166.243 41.6217 165.764 41.5968 165.133 41.5581C164.508 41.5194 164.035 41.5 163.714 41.5C163.393 41.5 162.939 41.5194 162.353 41.5581C161.766 41.5968 161.312 41.6217 160.991 41.6328C160.93 40.3656 160.842 39.0457 160.726 37.6733C160.615 36.3009 160.499 35.0558 160.377 33.938C160.261 32.8146 160.136 31.647 160.003 30.4351C159.876 29.2176 159.718 27.693 159.53 25.8613C159.104 26.7246 158.498 27.9476 157.712 29.5303C156.927 31.113 156.254 32.4826 155.695 33.6392C155.142 34.7902 154.486 36.1681 153.728 37.7729C152.97 39.3778 152.389 40.6201 151.985 41.5H150.69C150.325 40.6976 149.746 39.4829 148.955 37.856C148.169 36.2235 147.561 34.9756 147.129 34.1123C146.703 33.2435 146.053 31.9209 145.178 30.1445C144.304 28.3682 143.659 27.0539 143.244 26.2017C142.37 32.9253 141.894 38.069 141.816 41.6328C141.639 41.6217 141.374 41.5968 141.02 41.5581C140.665 41.5194 140.4 41.5 140.223 41.5C140.04 41.5 139.777 41.5194 139.434 41.5581C139.097 41.5968 138.825 41.6217 138.621 41.6328C139.191 38.556 139.725 35.3076 140.223 31.8877C140.721 28.4622 141.354 23.9494 142.124 18.3491C142.334 18.3823 142.511 18.4128 142.655 18.4404C142.799 18.4681 142.951 18.493 143.111 18.5151C143.272 18.5373 143.407 18.5483 143.518 18.5483C143.623 18.5483 143.762 18.5373 143.933 18.5151C144.11 18.493 144.268 18.4681 144.406 18.4404C144.545 18.4128 144.713 18.3823 144.913 18.3491C145.671 19.9705 146.282 21.2655 146.747 22.2339C147.217 23.1968 147.837 24.4557 148.606 26.0107C149.376 27.5602 150.112 29.0378 150.814 30.4434C151.523 31.8434 152.173 33.1383 152.765 34.3281ZM185.636 21.271C183.284 20.9556 179.975 20.7979 175.708 20.7979V28.3765H179.311C180.894 28.3765 182.241 28.5895 183.354 29.0156C184.466 29.4417 185.31 30.0837 185.885 30.9414C186.466 31.7936 186.757 32.8534 186.757 34.1206C186.757 39.0402 183.766 41.5 177.784 41.5H170.604V18.3491H185.636C185.52 18.8582 185.462 19.3452 185.462 19.8101C185.462 20.2749 185.52 20.7619 185.636 21.271ZM175.708 30.2441V39.5991C176.876 39.5991 177.737 39.5189 178.29 39.3584C179.341 39.0651 180.136 38.5007 180.672 37.665C181.215 36.8239 181.486 35.8472 181.486 34.7349C181.486 33.4123 181.157 32.3332 180.498 31.4976C179.84 30.6619 179.059 30.2441 178.157 30.2441H175.708ZM202.437 34.5605H194.518C194.319 35.1527 194.039 35.9468 193.68 36.9429C193.32 37.939 193.013 38.8161 192.758 39.5742C192.504 40.3324 192.296 41.0075 192.136 41.5996C191.992 41.5885 191.735 41.5692 191.364 41.5415C190.999 41.5138 190.725 41.5 190.542 41.5C190.359 41.5 190.091 41.5138 189.737 41.5415C189.383 41.5692 189.106 41.5885 188.907 41.5996L198.635 18.042C199.072 18.1084 199.501 18.1416 199.922 18.1416C200.342 18.1416 200.774 18.1084 201.217 18.042L210.705 41.6328C210.367 41.6217 209.869 41.5968 209.21 41.5581C208.557 41.5194 208.068 41.5 207.741 41.5C207.415 41.5 206.928 41.5194 206.28 41.5581C205.638 41.5968 205.162 41.6217 204.853 41.6328C203.823 38.3512 203.018 35.9938 202.437 34.5605ZM195.439 32.4937H201.657L198.635 24.5664L195.439 32.4937ZM219.171 31.4727V41.6328C218.878 41.6217 218.449 41.5968 217.885 41.5581C217.326 41.5194 216.903 41.5 216.615 41.5C216.321 41.5 215.895 41.5194 215.336 41.5581C214.778 41.5968 214.354 41.6217 214.066 41.6328V18.3491H222.434C224.819 18.3491 226.625 18.8306 227.854 19.7935C229.088 20.7508 229.705 22.1841 229.705 24.0933C229.705 26.0135 229.271 27.5187 228.402 28.6089C227.533 29.6991 226.329 30.4489 224.791 30.8584C223.258 31.2679 221.385 31.4727 219.171 31.4727ZM219.171 20.2168V29.5635C220.167 29.5192 220.915 29.4417 221.413 29.3311C222.453 29.0433 223.217 28.4871 223.704 27.6626C224.196 26.8325 224.442 25.8475 224.442 24.7075C224.442 23.3794 224.138 22.3003 223.529 21.4702C222.926 20.6346 222.176 20.2168 221.28 20.2168H219.171ZM230.203 39.0513H231.672C232.657 36.7603 233.44 34.9258 234.021 33.5479C234.608 32.1644 235.289 30.5264 236.063 28.6338C236.838 26.7357 237.569 24.8957 238.255 23.1138C238.947 21.3319 239.55 19.7188 240.064 18.2744C240.264 18.2744 240.513 18.2993 240.812 18.3491C241.11 18.3934 241.337 18.4155 241.492 18.4155C241.669 18.4155 241.91 18.3934 242.214 18.3491C242.519 18.2993 242.765 18.2744 242.953 18.2744C245.194 24.4225 247.881 31.3481 251.013 39.0513H252.648C252.51 40.1248 252.441 40.7253 252.441 40.8525C252.441 41.417 252.51 42.0285 252.648 42.687H252.134C251.724 42.1834 251.033 41.8597 250.059 41.7158C249.085 41.5719 247.92 41.5 246.564 41.5H236.528C235.007 41.5 233.761 41.5664 232.793 41.6992C231.83 41.8376 231.138 42.1668 230.718 42.687H230.203C230.319 42.1779 230.377 41.5664 230.377 40.8525C230.377 40.3877 230.319 39.7873 230.203 39.0513ZM239.691 39.1841C240.598 39.1841 241.614 39.1675 242.737 39.1343C243.861 39.1011 244.705 39.0734 245.269 39.0513C244.616 37.0535 243.88 34.9673 243.061 32.7925C242.248 30.6121 241.249 27.9282 240.064 24.7407C237.508 31.0216 235.673 35.7918 234.561 39.0513C235.081 39.0734 235.856 39.1011 236.885 39.1343C237.92 39.1675 238.855 39.1841 239.691 39.1841Z" fill="white"/>
<path d="M129.305 51.9756V60.5547C129.189 60.5501 129.016 60.5399 128.786 60.5239C128.558 60.508 128.386 60.5 128.27 60.5C128.151 60.5 127.973 60.508 127.736 60.5239C127.499 60.5399 127.322 60.5501 127.203 60.5547V50.9673H132.552C132.504 51.3091 132.48 51.5096 132.48 51.5688C132.48 51.6281 132.504 51.8286 132.552 52.1704C132.035 52.1089 131.533 52.061 131.045 52.0269C130.557 51.9927 129.977 51.9756 129.305 51.9756ZM144.187 55.6978C144.187 56.3813 144.061 57.0285 143.808 57.6392C143.555 58.2498 143.187 58.7899 142.704 59.2593C142.221 59.7287 141.635 60.0955 140.947 60.3599C140.261 60.6219 139.502 60.7529 138.67 60.7529C137.638 60.7529 136.73 60.557 135.946 60.165C135.165 59.7731 134.56 59.2012 134.131 58.4492C133.703 57.695 133.489 56.7961 133.489 55.7524C133.489 55.0552 133.613 54.4001 133.861 53.7871C134.11 53.1742 134.472 52.6375 134.948 52.1772C135.427 51.7147 136.008 51.3558 136.691 51.1006C137.377 50.8431 138.149 50.7144 139.005 50.7144C139.956 50.7144 140.767 50.8647 141.439 51.1655C142.113 51.464 142.65 51.8571 143.049 52.3447C143.448 52.8324 143.736 53.3644 143.914 53.9409C144.091 54.5151 144.182 55.1007 144.187 55.6978ZM138.91 51.5552C138.258 51.5552 137.701 51.7227 137.238 52.0576C136.778 52.3903 136.425 52.9007 136.179 53.5889C135.935 54.2747 135.813 55.1315 135.813 56.1592C135.813 56.8063 135.916 57.4159 136.121 57.9878C136.326 58.5597 136.648 59.0234 137.088 59.3789C137.528 59.7344 138.078 59.9121 138.739 59.9121C139.422 59.9121 140 59.7082 140.472 59.3003C140.943 58.8901 141.293 58.3444 141.521 57.6631C141.749 56.9795 141.863 56.2355 141.863 55.4312C141.863 54.9572 141.806 54.4935 141.692 54.04C141.58 53.5866 141.404 53.1707 141.162 52.7925C140.923 52.4142 140.614 52.1134 140.236 51.8901C139.858 51.6668 139.416 51.5552 138.91 51.5552ZM147.967 56.3711V60.5547C147.847 60.5501 147.67 60.5399 147.438 60.5239C147.207 60.508 147.033 60.5 146.915 60.5C146.794 60.5 146.618 60.508 146.388 60.5239C146.158 60.5399 145.984 60.5501 145.865 60.5547V50.9673H149.311C150.293 50.9673 151.037 51.1655 151.542 51.562C152.051 51.9562 152.305 52.5464 152.305 53.3325C152.305 54.1232 152.126 54.743 151.768 55.1919C151.41 55.6408 150.915 55.9495 150.281 56.1182C149.65 56.2868 148.879 56.3711 147.967 56.3711ZM147.967 51.7363V55.585C148.377 55.5667 148.685 55.5348 148.89 55.4893C149.319 55.3708 149.633 55.1418 149.833 54.8022C150.036 54.4604 150.138 54.0549 150.138 53.5854C150.138 53.0386 150.012 52.5942 149.762 52.2524C149.513 51.9084 149.205 51.7363 148.835 51.7363H147.967ZM163.628 55.6978C163.628 56.3813 163.502 57.0285 163.249 57.6392C162.996 58.2498 162.628 58.7899 162.145 59.2593C161.662 59.7287 161.076 60.0955 160.388 60.3599C159.702 60.6219 158.944 60.7529 158.112 60.7529C157.08 60.7529 156.172 60.557 155.388 60.165C154.606 59.7731 154.001 59.2012 153.573 58.4492C153.144 57.695 152.93 56.7961 152.93 55.7524C152.93 55.0552 153.054 54.4001 153.303 53.7871C153.551 53.1742 153.913 52.6375 154.39 52.1772C154.868 51.7147 155.449 51.3558 156.133 51.1006C156.819 50.8431 157.59 50.7144 158.447 50.7144C159.397 50.7144 160.208 50.8647 160.88 51.1655C161.555 51.464 162.091 51.8571 162.49 52.3447C162.889 52.8324 163.177 53.3644 163.355 53.9409C163.533 54.5151 163.624 55.1007 163.628 55.6978ZM158.351 51.5552C157.699 51.5552 157.142 51.7227 156.68 52.0576C156.219 52.3903 155.866 52.9007 155.62 53.5889C155.376 54.2747 155.254 55.1315 155.254 56.1592C155.254 56.8063 155.357 57.4159 155.562 57.9878C155.767 58.5597 156.09 59.0234 156.529 59.3789C156.969 59.7344 157.519 59.9121 158.18 59.9121C158.864 59.9121 159.441 59.7082 159.913 59.3003C160.385 58.8901 160.735 58.3444 160.962 57.6631C161.19 56.9795 161.304 56.2355 161.304 55.4312C161.304 54.9572 161.247 54.4935 161.133 54.04C161.022 53.5866 160.845 53.1707 160.604 52.7925C160.364 52.4142 160.056 52.1134 159.677 51.8901C159.299 51.6668 158.857 51.5552 158.351 51.5552ZM164.172 59.4917H164.777C165.182 58.5483 165.505 57.793 165.744 57.2256C165.986 56.6559 166.266 55.9814 166.585 55.2021C166.904 54.4206 167.205 53.6629 167.487 52.9292C167.772 52.1955 168.021 51.5312 168.232 50.9365C168.314 50.9365 168.417 50.9468 168.54 50.9673C168.663 50.9855 168.757 50.9946 168.82 50.9946C168.893 50.9946 168.992 50.9855 169.118 50.9673C169.243 50.9468 169.344 50.9365 169.422 50.9365C170.345 53.4681 171.451 56.3198 172.741 59.4917H173.414C173.357 59.9338 173.329 60.181 173.329 60.2334C173.329 60.4658 173.357 60.7176 173.414 60.9888H173.202C173.034 60.7814 172.749 60.6481 172.348 60.5889C171.947 60.5296 171.467 60.5 170.909 60.5H166.776C166.15 60.5 165.637 60.5273 165.238 60.582C164.842 60.639 164.557 60.7746 164.384 60.9888H164.172C164.22 60.7791 164.244 60.5273 164.244 60.2334C164.244 60.042 164.22 59.7948 164.172 59.4917ZM168.079 59.5464C168.452 59.5464 168.87 59.5396 169.333 59.5259C169.796 59.5122 170.143 59.5008 170.375 59.4917C170.107 58.6691 169.804 57.8101 169.466 56.9146C169.131 56.0168 168.72 54.9116 168.232 53.5991C167.18 56.1854 166.424 58.1496 165.966 59.4917C166.181 59.5008 166.5 59.5122 166.923 59.5259C167.349 59.5396 167.735 59.5464 168.079 59.5464ZM181.966 58.8628L182.15 58.9448L181.843 60.1514C181.054 60.5524 180.13 60.7529 179.071 60.7529C178.33 60.7529 177.638 60.6424 176.993 60.4214C176.35 60.2004 175.79 59.8813 175.311 59.4644C174.833 59.0474 174.461 58.5472 174.197 57.9639C173.935 57.3783 173.804 56.7345 173.804 56.0327C173.804 55.144 173.947 54.3625 174.234 53.688C174.521 53.0112 174.919 52.4541 175.427 52.0166C175.938 51.5791 176.528 51.2533 177.198 51.0391C177.87 50.8226 178.597 50.7144 179.378 50.7144C179.857 50.7144 180.356 50.7747 180.875 50.8955C181.395 51.0163 181.847 51.1849 182.232 51.4014C182.18 51.6133 182.123 51.8617 182.062 52.1465C182.002 52.4313 181.952 52.6626 181.911 52.8403H181.716C181.452 52.453 181.108 52.1419 180.684 51.9072C180.263 51.6725 179.832 51.5552 179.392 51.5552C178.834 51.5552 178.346 51.6759 177.929 51.9175C177.514 52.159 177.173 52.4883 176.904 52.9053C176.637 53.32 176.441 53.778 176.316 54.2793C176.191 54.7806 176.128 55.3001 176.128 55.8379C176.128 56.64 176.257 57.3486 176.514 57.9639C176.774 58.5791 177.154 59.0576 177.656 59.3994C178.159 59.7412 178.761 59.9121 179.46 59.9121C179.882 59.9121 180.325 59.8141 180.79 59.6182C181.255 59.4199 181.647 59.1681 181.966 58.8628ZM183.982 60.5547V50.9673C184.026 50.9696 184.177 50.9844 184.437 51.0117C184.697 51.0368 184.895 51.0493 185.032 51.0493C185.109 51.0493 185.208 51.0459 185.329 51.0391C185.45 51.0299 185.567 51.0197 185.681 51.0083C185.795 50.9946 185.93 50.981 186.084 50.9673V55.3491C187.324 53.925 188.537 52.4644 189.725 50.9673C189.829 50.981 189.922 50.9946 190.001 51.0083C190.083 51.0197 190.169 51.0299 190.258 51.0391C190.347 51.0459 190.421 51.0493 190.48 51.0493C190.571 51.0493 190.712 51.0368 190.904 51.0117C191.095 50.9844 191.201 50.9696 191.222 50.9673V51.0767C190.584 51.6851 189.916 52.3687 189.219 53.1274C188.521 53.8862 187.98 54.4958 187.595 54.9561L191.502 60.3735V60.5547C191.379 60.5501 191.177 60.5399 190.897 60.5239C190.617 60.508 190.422 60.5 190.312 60.5C190.189 60.5 189.988 60.508 189.708 60.5239C189.43 60.5399 189.234 60.5501 189.12 60.5547L186.084 56.1182V60.5547C185.964 60.5501 185.787 60.5399 185.555 60.5239C185.325 60.508 185.15 60.5 185.032 60.5C184.918 60.5 184.746 60.508 184.516 60.5239C184.288 60.5399 184.11 60.5501 183.982 60.5547ZM202.525 55.6978C202.525 56.3813 202.398 57.0285 202.146 57.6392C201.893 58.2498 201.525 58.7899 201.042 59.2593C200.558 59.7287 199.973 60.0955 199.285 60.3599C198.599 60.6219 197.84 60.7529 197.008 60.7529C195.976 60.7529 195.068 60.557 194.284 60.165C193.503 59.7731 192.898 59.2012 192.469 58.4492C192.041 57.695 191.827 56.7961 191.827 55.7524C191.827 55.0552 191.951 54.4001 192.199 53.7871C192.448 53.1742 192.81 52.6375 193.286 52.1772C193.765 51.7147 194.346 51.3558 195.029 51.1006C195.715 50.8431 196.486 50.7144 197.343 50.7144C198.293 50.7144 199.105 50.8647 199.777 51.1655C200.451 51.464 200.988 51.8571 201.387 52.3447C201.785 52.8324 202.074 53.3644 202.251 53.9409C202.429 54.5151 202.52 55.1007 202.525 55.6978ZM197.248 51.5552C196.596 51.5552 196.039 51.7227 195.576 52.0576C195.116 52.3903 194.763 52.9007 194.517 53.5889C194.273 54.2747 194.151 55.1315 194.151 56.1592C194.151 56.8063 194.253 57.4159 194.458 57.9878C194.664 58.5597 194.986 59.0234 195.426 59.3789C195.866 59.7344 196.416 59.9121 197.077 59.9121C197.76 59.9121 198.338 59.7082 198.81 59.3003C199.281 58.8901 199.631 58.3444 199.859 57.6631C200.087 56.9795 200.201 56.2355 200.201 55.4312C200.201 54.9572 200.144 54.4935 200.03 54.04C199.918 53.5866 199.742 53.1707 199.5 52.7925C199.261 52.4142 198.952 52.1134 198.574 51.8901C198.195 51.6668 197.753 51.5552 197.248 51.5552ZM204.203 60.5547V50.9673C204.358 50.981 204.494 50.9946 204.61 51.0083C204.728 51.0197 204.846 51.0299 204.962 51.0391C205.078 51.0459 205.175 51.0493 205.252 51.0493C205.33 51.0493 205.429 51.0459 205.55 51.0391C205.671 51.0299 205.788 51.0197 205.902 51.0083C206.016 50.9946 206.15 50.981 206.305 50.9673V57.5332C206.731 57.0798 207.188 56.5682 207.676 55.9985C208.163 55.4266 208.629 54.8638 209.074 54.3101C209.518 53.7541 209.968 53.1753 210.424 52.5737C210.882 51.9699 211.282 51.4242 211.624 50.9365C211.717 50.9479 211.866 50.9536 212.071 50.9536C212.352 50.9536 212.557 50.9479 212.687 50.9365V60.5547C212.575 60.5501 212.401 60.5399 212.164 60.5239C211.929 60.508 211.749 60.5 211.624 60.5C211.514 60.5 211.343 60.508 211.111 60.5239C210.878 60.5399 210.704 60.5501 210.588 60.5547V53.9341C210.178 54.4012 209.764 54.8843 209.347 55.3833C208.93 55.88 208.453 56.4611 207.915 57.1265C207.38 57.7896 206.89 58.4071 206.445 58.979C206.003 59.5487 205.606 60.0739 205.252 60.5547C205.15 60.5456 205.005 60.541 204.818 60.541C204.549 60.541 204.344 60.5456 204.203 60.5547ZM204.958 49.3267L205.533 48.5576C206.412 49.4349 207.388 49.8735 208.458 49.8735C209.561 49.8735 210.561 49.4258 211.456 48.5303L212.003 49.2446C211.675 49.5728 211.314 49.853 210.919 50.0854C210.525 50.3179 210.116 50.4922 209.692 50.6084C209.271 50.7246 208.841 50.7827 208.404 50.7827C207.775 50.7827 207.165 50.6619 206.575 50.4204C205.987 50.1789 205.448 49.8143 204.958 49.3267Z" fill="white"/>
</svg>
